<svg width="60" height="115" viewBox="0 0 60 115" fill="none" xmlns="http://www.w3.org/2000/svg">
<g opacity="0.3">
<mask id="mask0_21_5" style="mask-type:alpha" maskUnits="userSpaceOnUse" x="18" y="0" width="12" height="11">
<path d="M24.0716 10.425C26.9592 10.425 29.3 8.09121 29.3 5.21245C29.3 2.33368 26.9592 0 24.0716 0C21.184 0 18.8432 2.33368 18.8432 5.21245C18.8432 8.09121 21.184 10.425 24.0716 10.425Z" fill="url(#paint0_linear_21_5)"/>
</mask>
<g mask="url(#mask0_21_5)">
<path d="M24.0716 10.425C26.9592 10.425 29.3 8.09121 29.3 5.21245C29.3 2.33368 26.9592 0 24.0716 0C21.184 0 18.8432 2.33368 18.8432 5.21245C18.8432 8.09121 21.184 10.425 24.0716 10.425Z" fill="url(#paint1_linear_21_5)"/>
</g>
<mask id="mask1_21_5" style="mask-type:alpha" maskUnits="userSpaceOnUse" x="49" y="0" width="11" height="11">
<path d="M54.3526 10.425C57.2402 10.425 59.581 8.09121 59.581 5.21245C59.581 2.33368 57.2402 0 54.3526 0C51.4651 0 49.1243 2.33368 49.1243 5.21245C49.1243 8.09121 51.4651 10.425 54.3526 10.425Z" fill="url(#paint2_linear_21_5)"/>
</mask>
<g mask="url(#mask1_21_5)">
<path d="M54.3526 10.425C57.2402 10.425 59.581 8.09121 59.581 5.21245C59.581 2.33368 57.2402 0 54.3526 0C51.4651 0 49.1243 2.33368 49.1243 5.21245C49.1243 8.09121 51.4651 10.425 54.3526 10.425Z" fill="url(#paint3_linear_21_5)"/>
</g>
<mask id="mask2_21_5" style="mask-type:alpha" maskUnits="userSpaceOnUse" x="18" y="26" width="12" height="11">
<path d="M24.0716 36.5958C26.9592 36.5958 29.3 34.2621 29.3 31.3834C29.3 28.5046 26.9592 26.171 24.0716 26.171C21.184 26.171 18.8432 28.5046 18.8432 31.3834C18.8432 34.2621 21.184 36.5958 24.0716 36.5958Z" fill="url(#paint4_linear_21_5)"/>
</mask>
<g mask="url(#mask2_21_5)">
<path d="M24.0716 36.5958C26.9592 36.5958 29.3 34.2621 29.3 31.3834C29.3 28.5046 26.9592 26.171 24.0716 26.171C21.184 26.171 18.8432 28.5046 18.8432 31.3834C18.8432 34.2621 21.184 36.5958 24.0716 36.5958Z" fill="url(#paint5_linear_21_5)"/>
</g>
<mask id="mask3_21_5" style="mask-type:alpha" maskUnits="userSpaceOnUse" x="49" y="26" width="11" height="11">
<path d="M54.3526 36.5958C57.2402 36.5958 59.581 34.2621 59.581 31.3834C59.581 28.5046 57.2402 26.171 54.3526 26.171C51.4651 26.171 49.1243 28.5046 49.1243 31.3834C49.1243 34.2621 51.4651 36.5958 54.3526 36.5958Z" fill="url(#paint6_linear_21_5)"/>
</mask>
<g mask="url(#mask3_21_5)">
<path d="M54.3526 36.5958C57.2402 36.5958 59.581 34.2621 59.581 31.3834C59.581 28.5046 57.2402 26.171 54.3526 26.171C51.4651 26.171 49.1243 28.5046 49.1243 31.3834C49.1243 34.2621 51.4651 36.5958 54.3526 36.5958Z" fill="url(#paint7_linear_21_5)"/>
</g>
<mask id="mask4_21_5" style="mask-type:alpha" maskUnits="userSpaceOnUse" x="18" y="52" width="12" height="11">
<path d="M24.0716 62.7125C26.9592 62.7125 29.3 60.3788 29.3 57.5C29.3 54.6212 26.9592 52.2875 24.0716 52.2875C21.184 52.2875 18.8432 54.6212 18.8432 57.5C18.8432 60.3788 21.184 62.7125 24.0716 62.7125Z" fill="url(#paint8_linear_21_5)"/>
</mask>
<g mask="url(#mask4_21_5)">
<path d="M24.0716 62.7125C26.9592 62.7125 29.3 60.3788 29.3 57.5C29.3 54.6212 26.9592 52.2875 24.0716 52.2875C21.184 52.2875 18.8432 54.6212 18.8432 57.5C18.8432 60.3788 21.184 62.7125 24.0716 62.7125Z" fill="url(#paint9_linear_21_5)"/>
</g>
<mask id="mask5_21_5" style="mask-type:alpha" maskUnits="userSpaceOnUse" x="49" y="52" width="11" height="11">
<path d="M54.3526 62.7125C57.2402 62.7125 59.581 60.3788 59.581 57.5C59.581 54.6212 57.2402 52.2875 54.3526 52.2875C51.4651 52.2875 49.1243 54.6212 49.1243 57.5C49.1243 60.3788 51.4651 62.7125 54.3526 62.7125Z" fill="url(#paint10_linear_21_5)"/>
</mask>
<g mask="url(#mask5_21_5)">
<path d="M54.3526 62.7125C57.2402 62.7125 59.581 60.3788 59.581 57.5C59.581 54.6212 57.2402 52.2875 54.3526 52.2875C51.4651 52.2875 49.1243 54.6212 49.1243 57.5C49.1243 60.3788 51.4651 62.7125 54.3526 62.7125Z" fill="url(#paint11_linear_21_5)"/>
</g>
<mask id="mask6_21_5" style="mask-type:alpha" maskUnits="userSpaceOnUse" x="18" y="78" width="12" height="11">
<path d="M24.0716 88.8834C26.9592 88.8834 29.3 86.5496 29.3 83.6709C29.3 80.7921 26.9592 78.4584 24.0716 78.4584C21.184 78.4584 18.8432 80.7921 18.8432 83.6709C18.8432 86.5496 21.184 88.8834 24.0716 88.8834Z" fill="url(#paint12_linear_21_5)"/>
</mask>
<g mask="url(#mask6_21_5)">
<path d="M24.0716 88.8834C26.9592 88.8834 29.3 86.5496 29.3 83.6709C29.3 80.7921 26.9592 78.4584 24.0716 78.4584C21.184 78.4584 18.8432 80.7921 18.8432 83.6709C18.8432 86.5496 21.184 88.8834 24.0716 88.8834Z" fill="url(#paint13_linear_21_5)"/>
</g>
<mask id="mask7_21_5" style="mask-type:alpha" maskUnits="userSpaceOnUse" x="49" y="78" width="11" height="11">
<path d="M54.3526 88.8834C57.2402 88.8834 59.581 86.5496 59.581 83.6709C59.581 80.7921 57.2402 78.4584 54.3526 78.4584C51.4651 78.4584 49.1243 80.7921 49.1243 83.6709C49.1243 86.5496 51.4651 88.8834 54.3526 88.8834Z" fill="url(#paint14_linear_21_5)"/>
</mask>
<g mask="url(#mask7_21_5)">
<path d="M54.3526 88.8834C57.2402 88.8834 59.581 86.5496 59.581 83.6709C59.581 80.7921 57.2402 78.4584 54.3526 78.4584C51.4651 78.4584 49.1243 80.7921 49.1243 83.6709C49.1243 86.5496 51.4651 88.8834 54.3526 88.8834Z" fill="url(#paint15_linear_21_5)"/>
</g>
<mask id="mask8_21_5" style="mask-type:alpha" maskUnits="userSpaceOnUse" x="18" y="104" width="12" height="11">
<path d="M24.0716 115C26.9592 115 29.3 112.666 29.3 109.788C29.3 106.909 26.9592 104.575 24.0716 104.575C21.184 104.575 18.8432 106.909 18.8432 109.788C18.8432 112.666 21.184 115 24.0716 115Z" fill="url(#paint16_linear_21_5)"/>
</mask>
<g mask="url(#mask8_21_5)">
<path d="M24.0716 115C26.9592 115 29.3 112.666 29.3 109.788C29.3 106.909 26.9592 104.575 24.0716 104.575C21.184 104.575 18.8432 106.909 18.8432 109.788C18.8432 112.666 21.184 115 24.0716 115Z" fill="url(#paint17_linear_21_5)"/>
</g>
<mask id="mask9_21_5" style="mask-type:alpha" maskUnits="userSpaceOnUse" x="49" y="104" width="11" height="11">
<path d="M54.3526 115C57.2402 115 59.581 112.666 59.581 109.788C59.581 106.909 57.2402 104.575 54.3526 104.575C51.4651 104.575 49.1243 106.909 49.1243 109.788C49.1243 112.666 51.4651 115 54.3526 115Z" fill="url(#paint18_linear_21_5)"/>
</mask>
<g mask="url(#mask9_21_5)">
<path d="M54.3526 115C57.2402 115 59.581 112.666 59.581 109.788C59.581 106.909 57.2402 104.575 54.3526 104.575C51.4651 104.575 49.1243 106.909 49.1243 109.788C49.1243 112.666 51.4651 115 54.3526 115Z" fill="url(#paint19_linear_21_5)"/>
</g>
</g>
<defs>
<linearGradient id="paint0_linear_21_5" x1="61.6091" y1="100.259" x2="-9.79248" y2="-81.5444" gradientUnits="userSpaceOnUse">
<stop/>
<stop offset="1" stop-color="white"/>
</linearGradient>
<linearGradient id="paint1_linear_21_5" x1="61.6091" y1="100.259" x2="-9.79248" y2="-81.5444" gradientUnits="userSpaceOnUse">
<stop stop-color="#97C3F9"/>
<stop offset="1" stop-color="#93C1F9"/>
</linearGradient>
<linearGradient id="paint2_linear_21_5" x1="87.8135" y1="89.9679" x2="16.4119" y2="-91.8359" gradientUnits="userSpaceOnUse">
<stop/>
<stop offset="1" stop-color="white"/>
</linearGradient>
<linearGradient id="paint3_linear_21_5" x1="87.8135" y1="89.9679" x2="16.4119" y2="-91.8359" gradientUnits="userSpaceOnUse">
<stop stop-color="#97C3F9"/>
<stop offset="1" stop-color="#93C1F9"/>
</linearGradient>
<linearGradient id="paint4_linear_21_5" x1="52.6667" y1="103.771" x2="-18.7337" y2="-78.0318" gradientUnits="userSpaceOnUse">
<stop/>
<stop offset="1" stop-color="white"/>
</linearGradient>
<linearGradient id="paint5_linear_21_5" x1="52.6667" y1="103.771" x2="-18.7337" y2="-78.0318" gradientUnits="userSpaceOnUse">
<stop stop-color="#97C3F9"/>
<stop offset="1" stop-color="#93C1F9"/>
</linearGradient>
<linearGradient id="paint6_linear_21_5" x1="78.8711" y1="93.4794" x2="7.47073" y2="-88.3231" gradientUnits="userSpaceOnUse">
<stop/>
<stop offset="1" stop-color="white"/>
</linearGradient>
<linearGradient id="paint7_linear_21_5" x1="78.8711" y1="93.4794" x2="7.47073" y2="-88.3231" gradientUnits="userSpaceOnUse">
<stop stop-color="#97C3F9"/>
<stop offset="1" stop-color="#93C1F9"/>
</linearGradient>
<linearGradient id="paint8_linear_21_5" x1="43.7243" y1="107.283" x2="-27.6773" y2="-74.5205" gradientUnits="userSpaceOnUse">
<stop/>
<stop offset="1" stop-color="white"/>
</linearGradient>
<linearGradient id="paint9_linear_21_5" x1="43.7243" y1="107.283" x2="-27.6773" y2="-74.5205" gradientUnits="userSpaceOnUse">
<stop stop-color="#97C3F9"/>
<stop offset="1" stop-color="#93C1F9"/>
</linearGradient>
<linearGradient id="paint10_linear_21_5" x1="69.9287" y1="96.9919" x2="-1.47294" y2="-84.812" gradientUnits="userSpaceOnUse">
<stop/>
<stop offset="1" stop-color="white"/>
</linearGradient>
<linearGradient id="paint11_linear_21_5" x1="69.9287" y1="96.9919" x2="-1.47294" y2="-84.812" gradientUnits="userSpaceOnUse">
<stop stop-color="#97C3F9"/>
<stop offset="1" stop-color="#93C1F9"/>
</linearGradient>
<linearGradient id="paint12_linear_21_5" x1="34.782" y1="110.795" x2="-36.6196" y2="-71.0084" gradientUnits="userSpaceOnUse">
<stop/>
<stop offset="1" stop-color="white"/>
</linearGradient>
<linearGradient id="paint13_linear_21_5" x1="34.782" y1="110.795" x2="-36.6196" y2="-71.0084" gradientUnits="userSpaceOnUse">
<stop stop-color="#97C3F9"/>
<stop offset="1" stop-color="#93C1F9"/>
</linearGradient>
<linearGradient id="paint14_linear_21_5" x1="60.9863" y1="100.504" x2="-10.4153" y2="-81.3" gradientUnits="userSpaceOnUse">
<stop/>
<stop offset="1" stop-color="white"/>
</linearGradient>
<linearGradient id="paint15_linear_21_5" x1="60.9863" y1="100.504" x2="-10.4153" y2="-81.3" gradientUnits="userSpaceOnUse">
<stop stop-color="#97C3F9"/>
<stop offset="1" stop-color="#93C1F9"/>
</linearGradient>
<linearGradient id="paint16_linear_21_5" x1="25.8397" y1="114.307" x2="-45.562" y2="-67.4964" gradientUnits="userSpaceOnUse">
<stop/>
<stop offset="1" stop-color="white"/>
</linearGradient>
<linearGradient id="paint17_linear_21_5" x1="25.8397" y1="114.307" x2="-45.562" y2="-67.4964" gradientUnits="userSpaceOnUse">
<stop stop-color="#97C3F9"/>
<stop offset="1" stop-color="#93C1F9"/>
</linearGradient>
<linearGradient id="paint18_linear_21_5" x1="52.044" y1="104.016" x2="-19.3576" y2="-77.7879" gradientUnits="userSpaceOnUse">
<stop/>
<stop offset="1" stop-color="white"/>
</linearGradient>
<linearGradient id="paint19_linear_21_5" x1="52.044" y1="104.016" x2="-19.3576" y2="-77.7879" gradientUnits="userSpaceOnUse">
<stop stop-color="#97C3F9"/>
<stop offset="1" stop-color="#93C1F9"/>
</linearGradient>
</defs>
</svg>
